# Blender 3.3.1
# www.blender.org
o Caja_baraja-Body
v -1.583175 0.216645 1.066560
v 1.583175 0.216645 1.066560
v 1.583175 0.216645 -1.066560
v -1.583175 0.216645 -1.066560
v 1.583175 -0.216645 -1.066560
v -1.583175 -0.216645 -1.066560
v -1.583175 -0.216645 1.066560
v 1.583175 -0.216645 1.066560
v -1.583175 -0.216645 1.066560
v -1.583175 0.216645 1.066560
v -1.583175 0.216645 -1.066560
v -1.583175 -0.216645 -1.066560
v 1.583175 0.216645 1.066560
v 1.583175 -0.216645 1.066560
v 1.583175 0.216645 -1.066560
v 1.583175 -0.216645 -1.066560
vn -0.0000 1.0000 -0.0000
vn -0.0000 -0.0000 -1.0000
vn -0.0000 -1.0000 -0.0000
vn -0.0000 -0.0000 1.0000
vn -1.0000 -0.0000 -0.0000
vn 1.0000 -0.0000 -0.0000
vt 0.402515 0.597485
vt 0.805031 0.000000
vt 0.402515 0.000000
vt 0.805031 0.597485
vt 0.805031 0.000000
vt 0.886793 0.000000
vt 0.805031 0.597485
vt 0.886793 0.597485
vt 0.968554 0.000000
vt 0.402515 0.597485
vt 0.968554 0.597485
vt 0.402515 0.000000
vt 0.000000 0.000000
vt 0.886792 0.000000
vt 0.000000 0.597485
vt 0.886792 0.597485
vt 0.163522 1.000000
vt 0.081761 1.000000
vt 0.081761 0.597485
vt 0.163522 0.597485
vt 0.000000 0.597485
vt 0.081761 0.597485
vt 0.000000 1.000000
vt 0.081761 1.000000
s 0
f 1/1/1 2/3/1 3/5/1
f 4/7/1 1/1/1 3/5/1
f 4/8/2 3/6/2 5/9/2
f 6/11/2 4/8/2 5/9/2
f 7/13/3 6/12/3 5/10/3
f 7/13/3 5/10/3 8/15/3
f 7/14/4 8/16/4 2/4/4
f 1/2/4 7/14/4 2/4/4
f 9/17/5 10/18/5 11/19/5
f 9/17/5 11/19/5 12/20/5
f 13/21/6 14/22/6 15/23/6
f 15/23/6 14/22/6 16/24/6
