# Blender v2.79 (sub 0) OBJ File: 'wall.blend'
# www.blender.org
mtllib wall.mtl
o Cube
v 0.129509 0.054662 0.904322
v 0.145559 0.974488 0.896406
v -0.134397 0.979367 0.895604
v -0.150448 0.059540 0.903520
v 0.134397 0.039088 -0.895604
v 0.150448 0.958914 -0.903520
v -0.129509 0.963792 -0.904322
v -0.145559 0.043966 -0.896406
vt 0.000000 0.000000
vt 1.000000 0.000000
vt 1.000000 1.000000
vt 0.000000 1.000000
vt 0.000000 0.000000
vt 1.000000 0.000000
vt 1.000000 1.000000
vt 0.000000 1.000000
vt 1.000000 0.000000
vt 1.000000 1.000000
vt 0.000000 1.000000
vt 0.000000 0.000000
vt 1.000000 0.000000
vt 0.000000 1.000000
vt 0.000000 0.000000
vt 1.000000 0.000000
vt 1.000000 1.000000
vt 1.000000 0.000000
vt 1.000000 1.000000
vt 0.000000 1.000000
vn -0.0027 0.0087 1.0000
vn 0.0027 -0.0087 -1.0000
vn 0.9998 -0.0174 0.0029
vn 0.0174 0.9998 -0.0086
vn -0.9998 0.0174 -0.0029
vn -0.0174 -0.9998 0.0086
usemtl Material
s off
f 1/1/1 2/2/1 3/3/1 4/4/1
f 5/5/2 8/6/2 7/7/2 6/8/2
f 1/1/3 5/9/3 6/10/3 2/11/3
f 2/12/4 6/13/4 7/7/4 3/14/4
f 3/15/5 7/16/5 8/17/5 4/4/5
f 5/5/6 1/18/6 4/19/6 8/20/6
